<svg xmlns="http://www.w3.org/2000/svg" version="1.1" xmlns:xlink="http://www.w3.org/1999/xlink" xmlns:svgjs="http://svgjs.com/svgjs" width="1440" height="560" preserveAspectRatio="none" viewBox="0 0 1440 560"><g mask="url(&quot;#SvgjsMask1009&quot;)" fill="none"><rect width="1440" height="560" x="0" y="0" fill="rgba(203, 211, 219, 1)"></rect><rect width="98" height="98" clip-path="url(&quot;#SvgjsClipPath1010&quot;)" x="727.38" y="216.58" fill="url(#SvgjsPattern1011)" transform="rotate(298.85, 776.38, 265.58)"></rect><path d="M1176.45 474.65a5.6 5.6 0 1 0 11.18-0.58 5.6 5.6 0 1 0-11.18 0.58zM1192.43 473.83a5.6 5.6 0 1 0 11.18-0.58 5.6 5.6 0 1 0-11.18 0.58zM1208.41 473.01a5.6 5.6 0 1 0 11.18-0.58 5.6 5.6 0 1 0-11.18 0.58zM1224.38 472.18a5.6 5.6 0 1 0 11.19-0.57 5.6 5.6 0 1 0-11.19 0.57z" fill="#037b0b"></path><circle r="72.58561527908016" cx="568.52" cy="385.2" fill="#037b0b"></circle><path d="M155.61 337.07 L85.94 303.2L174.2783923861032 266.6316076138968z" fill="#037b0b"></path><path d="M1247.03 482.01 L1269.09 361.46000000000004L1301.7509865676673 465.42598656766734z" stroke="#d3b714" stroke-width="2.32"></path><rect width="112.80000000000001" height="112.80000000000001" clip-path="url(&quot;#SvgjsClipPath1012&quot;)" x="272.04" y="234.7" fill="url(#SvgjsPattern1013)" transform="rotate(67, 328.44, 291.1)"></rect><rect width="312" height="312" clip-path="url(&quot;#SvgjsClipPath1014&quot;)" x="-45.11" y="314.6" fill="url(#SvgjsPattern1015)" transform="rotate(162.16, 110.89, 470.6)"></rect><path d="M570.8199999999999 289.59000000000003 L524.01 313.03L513.6309068197851 267.5259068197851z" stroke="#e73635" stroke-width="2.7" stroke-dasharray="3, 3"></path><path d="M792.53 231.26999999999998 L687.47 196.26999999999998L662.5054410034091 291.26455899659084z" stroke="#037b0b" stroke-width="2.85" stroke-dasharray="3, 2"></path><rect width="92.6" height="92.6" clip-path="url(&quot;#SvgjsClipPath1016&quot;)" x="1387.69" y="241.72" fill="url(#SvgjsPattern1017)" transform="rotate(84.36, 1433.99, 288.02)"></rect><path d="M1261.32 323.57a5.6 5.6 0 1 0 2.06-11.01 5.6 5.6 0 1 0-2.06 11.01zM1264.26 307.85a5.6 5.6 0 1 0 2.06-11.01 5.6 5.6 0 1 0-2.06 11.01zM1267.21 292.12a5.6 5.6 0 1 0 2.06-11.01 5.6 5.6 0 1 0-2.06 11.01zM1270.15 276.39a5.6 5.6 0 1 0 2.07-11 5.6 5.6 0 1 0-2.07 11zM1271.15 357.97a5.6 5.6 0 1 0 2.06-11.01 5.6 5.6 0 1 0-2.06 11.01zM1274.1 342.25a5.6 5.6 0 1 0 2.06-11.01 5.6 5.6 0 1 0-2.06 11.01zM1277.04 326.52a5.6 5.6 0 1 0 2.07-11.01 5.6 5.6 0 1 0-2.07 11.01zM1279.99 310.79a5.6 5.6 0 1 0 2.06-11.01 5.6 5.6 0 1 0-2.06 11.01zM1280.99 392.37a5.6 5.6 0 1 0 2.06-11.01 5.6 5.6 0 1 0-2.06 11.01zM1283.93 376.64a5.6 5.6 0 1 0 2.06-11 5.6 5.6 0 1 0-2.06 11zM1286.88 360.92a5.6 5.6 0 1 0 2.06-11.01 5.6 5.6 0 1 0-2.06 11.01zM1289.82 345.19a5.6 5.6 0 1 0 2.07-11.01 5.6 5.6 0 1 0-2.07 11.01z" fill="#e73635"></path><path d="M1388.09 549.56a5.6 5.6 0 1 0-1.91 11.03 5.6 5.6 0 1 0 1.91-11.03zM1385.36 565.32a5.6 5.6 0 1 0-1.92 11.04 5.6 5.6 0 1 0 1.92-11.04zM1382.62 581.09a5.6 5.6 0 1 0-1.91 11.03 5.6 5.6 0 1 0 1.91-11.03zM1379.89 596.85a5.6 5.6 0 1 0-1.91 11.04 5.6 5.6 0 1 0 1.91-11.04zM1377.79 515.29a5.6 5.6 0 1 0-1.92 11.04 5.6 5.6 0 1 0 1.92-11.04zM1375.05 531.06a5.6 5.6 0 1 0-1.91 11.03 5.6 5.6 0 1 0 1.91-11.03zM1372.32 546.82a5.6 5.6 0 1 0-1.91 11.04 5.6 5.6 0 1 0 1.91-11.04zM1369.59 562.59a5.6 5.6 0 1 0-1.91 11.04 5.6 5.6 0 1 0 1.91-11.04z" stroke="#e73635" stroke-width="2.78" stroke-dasharray="3, 3"></path></g><defs><mask id="SvgjsMask1009"><rect width="1440" height="560" fill="#ffffff"></rect></mask><pattern x="0" y="0" width="98" height="9.8" patternUnits="userSpaceOnUse" id="SvgjsPattern1011"><rect width="98" height="4.9" x="0" y="0" fill="#037b0b"></rect><rect width="98" height="4.9" x="0" y="4.9" fill="rgba(0, 0, 0, 0)"></rect></pattern><clipPath id="SvgjsClipPath1010"><circle r="24.5" cx="776.38" cy="265.58"></circle></clipPath><pattern x="0" y="0" width="9.4" height="9.4" patternUnits="userSpaceOnUse" id="SvgjsPattern1013"><path d="M0 9.4L4.7 0L9.4 9.4" stroke="#037b0b" fill="none"></path></pattern><clipPath id="SvgjsClipPath1012"><circle r="28.200000000000003" cx="328.44" cy="291.1"></circle></clipPath><pattern x="0" y="0" width="6" height="6" patternUnits="userSpaceOnUse" id="SvgjsPattern1015"><path d="M0 6L3 0L6 6" stroke="#037b0b" fill="none"></path></pattern><clipPath id="SvgjsClipPath1014"><circle r="78" cx="110.89" cy="470.6"></circle></clipPath><pattern x="0" y="0" width="92.6" height="9.26" patternUnits="userSpaceOnUse" id="SvgjsPattern1017"><rect width="92.6" height="4.63" x="0" y="0" fill="#e73635"></rect><rect width="92.6" height="4.63" x="0" y="4.63" fill="rgba(0, 0, 0, 0)"></rect></pattern><clipPath id="SvgjsClipPath1016"><circle r="23.15" cx="1433.99" cy="288.02"></circle></clipPath></defs></svg>