<svg xmlns="http://www.w3.org/2000/svg" version="1.1" xmlns:xlink="http://www.w3.org/1999/xlink" xmlns:svgjs="http://svgjs.com/svgjs" width="1440" height="560" preserveAspectRatio="none" viewBox="0 0 1440 560"><g mask="url(&quot;#SvgjsMask1003&quot;)" fill="none"><rect width="1440" height="560" x="0" y="0" fill="rgba(203, 211, 219, 1)"></rect><path d="M1064 87L1063 -204" stroke-width="10" stroke="url(#SvgjsLinearGradient1004)" stroke-linecap="round" class="Up"></path><path d="M909 3L908 -301" stroke-width="8" stroke="url(#SvgjsLinearGradient1005)" stroke-linecap="round" class="Down"></path><path d="M336 10L335 158" stroke-width="6" stroke="url(#SvgjsLinearGradient1004)" stroke-linecap="round" class="Up"></path><path d="M810 338L809 605" stroke-width="10" stroke="url(#SvgjsLinearGradient1004)" stroke-linecap="round" class="Up"></path><path d="M216 444L215 732" stroke-width="8" stroke="url(#SvgjsLinearGradient1004)" stroke-linecap="round" class="Up"></path><path d="M321 147L320 -190" stroke-width="8" stroke="url(#SvgjsLinearGradient1004)" stroke-linecap="round" class="Up"></path><path d="M72 455L71 668" stroke-width="8" stroke="url(#SvgjsLinearGradient1005)" stroke-linecap="round" class="Down"></path><path d="M1434 547L1433 855" stroke-width="8" stroke="url(#SvgjsLinearGradient1005)" stroke-linecap="round" class="Down"></path><path d="M1040 521L1039 304" stroke-width="8" stroke="url(#SvgjsLinearGradient1004)" stroke-linecap="round" class="Up"></path><path d="M847 151L846 326" stroke-width="10" stroke="url(#SvgjsLinearGradient1005)" stroke-linecap="round" class="Down"></path><path d="M1088 363L1087 593" stroke-width="10" stroke="url(#SvgjsLinearGradient1004)" stroke-linecap="round" class="Up"></path><path d="M116 410L115 262" stroke-width="10" stroke="url(#SvgjsLinearGradient1004)" stroke-linecap="round" class="Up"></path><path d="M423 547L422 152" stroke-width="8" stroke="url(#SvgjsLinearGradient1005)" stroke-linecap="round" class="Down"></path><path d="M1218 191L1217 582" stroke-width="8" stroke="url(#SvgjsLinearGradient1005)" stroke-linecap="round" class="Down"></path><path d="M617 434L616 808" stroke-width="6" stroke="url(#SvgjsLinearGradient1004)" stroke-linecap="round" class="Up"></path><path d="M1381 452L1380 98" stroke-width="8" stroke="url(#SvgjsLinearGradient1004)" stroke-linecap="round" class="Up"></path><path d="M1031 122L1030 436" stroke-width="8" stroke="url(#SvgjsLinearGradient1005)" stroke-linecap="round" class="Down"></path><path d="M747 94L746 -224" stroke-width="6" stroke="url(#SvgjsLinearGradient1005)" stroke-linecap="round" class="Down"></path><path d="M559 154L558 382" stroke-width="8" stroke="url(#SvgjsLinearGradient1005)" stroke-linecap="round" class="Down"></path><path d="M1308 20L1307 -287" stroke-width="6" stroke="url(#SvgjsLinearGradient1005)" stroke-linecap="round" class="Down"></path><path d="M106 51L105 -153" stroke-width="6" stroke="url(#SvgjsLinearGradient1004)" stroke-linecap="round" class="Up"></path><path d="M458 200L457 472" stroke-width="6" stroke="url(#SvgjsLinearGradient1004)" stroke-linecap="round" class="Up"></path><path d="M296 497L295 757" stroke-width="10" stroke="url(#SvgjsLinearGradient1004)" stroke-linecap="round" class="Up"></path><path d="M836 301L835 719" stroke-width="8" stroke="url(#SvgjsLinearGradient1004)" stroke-linecap="round" class="Up"></path><path d="M1360 85L1359 246" stroke-width="10" stroke="url(#SvgjsLinearGradient1004)" stroke-linecap="round" class="Up"></path><path d="M439 367L438 771" stroke-width="10" stroke="url(#SvgjsLinearGradient1004)" stroke-linecap="round" class="Up"></path><path d="M973 363L972 607" stroke-width="10" stroke="url(#SvgjsLinearGradient1004)" stroke-linecap="round" class="Up"></path><path d="M1313 127L1312 472" stroke-width="8" stroke="url(#SvgjsLinearGradient1005)" stroke-linecap="round" class="Down"></path><path d="M1043 378L1042 759" stroke-width="10" stroke="url(#SvgjsLinearGradient1004)" stroke-linecap="round" class="Up"></path><path d="M1326 403L1325 81" stroke-width="8" stroke="url(#SvgjsLinearGradient1005)" stroke-linecap="round" class="Down"></path><path d="M370 144L369 -62" stroke-width="10" stroke="url(#SvgjsLinearGradient1005)" stroke-linecap="round" class="Down"></path><path d="M385 162L384 579" stroke-width="6" stroke="url(#SvgjsLinearGradient1005)" stroke-linecap="round" class="Down"></path><path d="M1334 443L1333 605" stroke-width="8" stroke="url(#SvgjsLinearGradient1005)" stroke-linecap="round" class="Down"></path><path d="M430 502L429 278" stroke-width="10" stroke="url(#SvgjsLinearGradient1005)" stroke-linecap="round" class="Down"></path><path d="M714 282L713 -20" stroke-width="8" stroke="url(#SvgjsLinearGradient1005)" stroke-linecap="round" class="Down"></path><path d="M1215 550L1214 779" stroke-width="6" stroke="url(#SvgjsLinearGradient1005)" stroke-linecap="round" class="Down"></path></g><defs><mask id="SvgjsMask1003"><rect width="1440" height="560" fill="#ffffff"></rect></mask><linearGradient x1="0%" y1="100%" x2="0%" y2="0%" id="SvgjsLinearGradient1004"><stop stop-color="rgba(28, 83, 142, 0)" offset="0"></stop><stop stop-color="#1c538e" offset="1"></stop></linearGradient><linearGradient x1="0%" y1="0%" x2="0%" y2="100%" id="SvgjsLinearGradient1005"><stop stop-color="rgba(28, 83, 142, 0)" offset="0"></stop><stop stop-color="#1c538e" offset="1"></stop></linearGradient></defs></svg>